<svg width="416" height="78" viewBox="0 0 416 78" fill="none" xmlns="http://www.w3.org/2000/svg">
<path d="M99.5684 43.5518C99.5684 47.9038 100.816 51.3599 103.312 53.9199C105.872 56.4798 109.041 57.7598 112.816 57.7598C116.592 57.7597 119.632 56.5115 121.936 54.0156C124.304 51.4556 125.488 47.9678 125.488 43.5518V4H143.056V43.5518C143.056 49.4397 141.808 54.5601 139.312 58.9121C136.88 63.2641 133.392 66.6242 128.848 68.9922C124.304 71.36 118.928 72.5439 112.72 72.5439C106.512 72.5439 101.104 71.3601 96.4961 68.9922C91.8882 66.6242 88.3041 63.264 85.7441 58.9121C83.2481 54.5601 82 49.4398 82 43.5518V4H99.5684V43.5518Z" fill="#22272A"/>
<path fill-rule="evenodd" clip-rule="evenodd" d="M184.626 4C193.202 4 199.859 6.08023 204.595 10.2402C209.33 14.3362 211.698 20.1284 211.698 27.6162C211.698 35.4879 209.33 41.6319 204.595 46.0479C199.859 50.3999 193.202 52.5762 184.626 52.5762H172.626V71.2959H155.059V4H184.626ZM172.626 38.752H183.763C187.346 38.7519 190.099 37.8554 192.019 36.0635C194.002 34.2715 194.994 31.6155 194.994 28.0957C194.994 24.7039 194.002 22.144 192.019 20.416C190.099 18.6881 187.346 17.8243 183.763 17.8242H172.626V38.752Z" fill="#22272A"/>
<path d="M237.876 56.5117H266.389V71.2959H220.309V4H237.876V56.5117Z" fill="#22272A"/>
<path d="M291.97 71.2959H274.402V13.2715L291.97 4.03809V71.2959Z" fill="#22272A"/>
<path d="M355.267 17.8242H322.626V33.0879H352.763L340.643 46.8154H322.626V71.2959H305.059V4H355.362L355.267 17.8242Z" fill="#22272A"/>
<path d="M415.211 18.208H395.051V71.2959H377.482V18.208H357.515V4H415.211V18.208Z" fill="#22272A"/>
<path d="M0 16.5L18 10V71.5L0 78V16.5Z" fill="#22272A"/>
<path d="M22 6.5L40 0V61.5L22 68V6.5Z" fill="#108F8B"/>
<path d="M44 10L62 3.5V65L44 71.5938V10Z" fill="#22272A"/>
</svg>
